# xmcd
#
# Track frame offsets:
#	150
#	61375
#	93477
#	142270
#	183852
#	212265
#	248927
#	264595
#	269465
#	284390
#	302395
#	312965
#
# Disc length: 4254 seconds
#
# Revision: 2
# Processed by: cddbd v1.5.1PL0 Copyright (c) Steve Scherf et al.
# Submitted via: audiograbber 1.83.01
#
DISCID=af109c0c
DTITLE=Various Artist - Grieg - Music for Piano
DYEAR=1843
DGENRE=Classical
TTITLE0=Concerto in A minor for Piano and Orchestra, Op. 16 -  Allegro molto mo
TTITLE0=derato
TTITLE1=Concerto in A minor for Piano and Orchestra, Op. 16 -  Adagio
TTITLE2=Concerto in A minor for Piano and Orchestra, Op. 16 -  Allegro moderato
TTITLE2=e marcato
TTITLE3=Sonata for Violin and Piano, Op. 45 -  Allegro molto e appassionato
TTITLE4=Sonata for Violin and Piano, Op. 45 -  Allegreto expressivo all Romanza
TTITLE5=Sonata for Violin and Piano, Op. 45 -  Allegretto animato
TTITLE6=Norwegian Peasant Dances, Op. 72 for Piano -  Wedding March after Mylla
TTITLE6=rguten No. 8
TTITLE7=Norwegian Peasant Dances, Op. 72 for Piano -  Nils Rekves Halling No. 9
TTITLE8=Norwegian Peasant Dances, Op. 72 for Piano -  Bridal March from Telemar
TTITLE8=k, No. 3
TTITLE9=Norwegian Peasant Dances, Op. 72 for Piano -  Halling from the Hills, N
TTITLE9=o. 4
TTITLE10=Norwegian Peasant Dances, Op. 72 for Piano -  Wedding March of the Gob
TTITLE10=lins No. 14
TTITLE11=Norwegian Peasant Dances, Op. 72 for Piano -  The Maidens from Kivleda
TTITLE11=l No. 16
EXTD=
EXTT0=Symphony Orchestra Ljubljana - Anton Nanut
EXTT1=Symphony Orchestra Ljubljana - Anton Nanut
EXTT2=Symphony Orchestra Ljubljana - Anton Nanut
EXTT3=Jane Christee Gerhinger - Violin
EXTT4=Jane Christee Gerhinger - Violin
EXTT5=Jane Christee Gerhinger - Violin
EXTT6=Stefan Jeschko - Piano
EXTT7=Stefan Jeschko - Piano
EXTT8=Stefan Jeschko - Piano
EXTT9=Stefan Jeschko - Piano
EXTT10=Stefan Jeschko - Piano
EXTT11=Stefan Jeschko - Piano
PLAYORDER=
